<svg width="619" height="621" viewBox="0 0 619 621" fill="none" xmlns="http://www.w3.org/2000/svg">
<g opacity="0.25">
<path d="M65.3341 557.764L-64.4058 596.212L21.2748 685.708L65.3341 557.764Z" fill="#F583E3"/>
<path d="M506.001 541.244L457.646 588.688L516.535 608.163L506.001 541.244Z" fill="#FF9BEF"/>
<path d="M16.1254 11.4498L19.6714 51.875L51.0922 32.0434L16.1254 11.4498Z" fill="#FF9BEF"/>
<path d="M46.5836 73.4563L11.8 115.832L60.8749 126.384L46.5836 73.4563Z" fill="#F583E3"/>
<path d="M85.4179 162.641L6.18348 184.362L57.0779 239.756L85.4179 162.641Z" fill="#F583E3"/>
<path d="M116.664 196.804L114.102 285.209L187.14 250.238L116.664 196.804Z" fill="#FF9BEF"/>
<path d="M44.5086 285.391L45.6787 395.822L135.082 348.581L44.5086 285.391Z" fill="#F583E3"/>
<path d="M249.816 295.653L167.047 355.026L250.072 397.515L249.816 295.653Z" fill="#F583E3"/>
<path d="M603.096 608.335L582.11 563.686L554.561 599.484L603.096 608.335Z" fill="#F583E3"/>
<path d="M453.112 502.483L401.025 481.808L406.028 532.875L453.112 502.483Z" fill="#F583E3"/>
<path d="M433.412 615.275L396.427 548.168L357.304 606.403L433.412 615.275Z" fill="#F583E3"/>
<path d="M357.542 510.931L309.986 445.039L276.282 511.371L357.542 510.931Z" fill="#FF9BEF"/>
<path d="M334.236 562.671L256.087 558.462L285.419 623.842L334.236 562.671Z" fill="#F583E3"/>
<path d="M223.338 431.273L138.582 450.028L189.376 511.16L223.338 431.273Z" fill="#F583E3"/>
<path d="M113.611 422.102L2.11028 444.705L67.2472 525.995L113.611 422.102Z" fill="#FF9BEF"/>
<path d="M117.439 512.167L108.147 626.552L205.154 586.17L117.439 512.167Z" fill="#F583E3"/>
</g>
</svg>
