<svg width="628" height="624" viewBox="0 0 628 624" fill="none" xmlns="http://www.w3.org/2000/svg">
<g opacity="0.25">
<path d="M553.666 557.764L683.406 596.212L597.725 685.708L553.666 557.764Z" fill="#F583E3"/>
<path d="M113 541.244L161.355 588.688L102.466 608.163L113 541.244Z" fill="#FF9BEF"/>
<path d="M602.875 11.4498L599.329 51.875L567.908 32.0434L602.875 11.4498Z" fill="#FF9BEF"/>
<path d="M572.416 73.4563L607.2 115.832L558.125 126.384L572.416 73.4563Z" fill="#F583E3"/>
<path d="M533.582 162.641L612.817 184.362L561.922 239.756L533.582 162.641Z" fill="#F583E3"/>
<path d="M502.337 196.804L504.898 285.209L431.86 250.238L502.337 196.804Z" fill="#FF9BEF"/>
<path d="M574.492 285.391L573.322 395.822L483.919 348.581L574.492 285.391Z" fill="#F583E3"/>
<path d="M369.184 295.653L451.953 355.026L368.928 397.515L369.184 295.653Z" fill="#F583E3"/>
<path d="M15.9056 608.335L36.8912 563.686L64.4405 599.484L15.9056 608.335Z" fill="#F583E3"/>
<path d="M165.888 502.483L217.976 481.808L212.973 532.875L165.888 502.483Z" fill="#F583E3"/>
<path d="M185.588 615.275L222.573 548.168L261.697 606.403L185.588 615.275Z" fill="#F583E3"/>
<path d="M261.459 510.931L309.015 445.039L342.718 511.371L261.459 510.931Z" fill="#FF9BEF"/>
<path d="M284.765 562.671L362.914 558.462L333.582 623.842L284.765 562.671Z" fill="#F583E3"/>
<path d="M395.662 431.273L480.419 450.028L429.625 511.16L395.662 431.273Z" fill="#F583E3"/>
<path d="M505.389 422.102L616.89 444.705L551.753 525.995L505.389 422.102Z" fill="#FF9BEF"/>
<path d="M501.561 512.167L510.853 626.552L413.847 586.17L501.561 512.167Z" fill="#F583E3"/>
</g>
</svg>
