<svg width="1342" height="158" viewBox="0 0 1342 158" fill="none" xmlns="http://www.w3.org/2000/svg">
<path d="M169.5 57L134.426 -12.75H204.574L169.5 57Z" fill="#F583E3"/>
<path d="M122.5 64L157.574 133.75H87.426L122.5 64Z" fill="#F583E3"/>
<path d="M243.924 121.022L252.645 43.4387L311.403 81.7567L243.924 121.022Z" fill="#F583E3"/>
<path d="M1304.46 87.4291L1245.03 36.7895L1309.67 9.53135L1304.46 87.4291Z" fill="#F583E3"/>
<path d="M1200.5 64L1235.57 133.75H1165.43L1200.5 64Z" fill="#F583E3"/>
<path d="M1087.92 72.0221L1096.65 -5.56128L1155.4 32.7567L1087.92 72.0221Z" fill="#F583E3"/>
<path d="M1019.25 45.5106L1031.06 122.684L964.343 101.015L1019.25 45.5106Z" fill="#F583E3"/>
<path d="M957.353 52.6695L880.132 41.1724L920.532 -16.1741L957.353 52.6695Z" fill="#F583E3"/>
<path d="M713.924 39.0221L722.645 -38.5613L781.403 -0.243343L713.924 39.0221Z" fill="#F583E3"/>
<path d="M788.446 52.8388L856.745 90.6614L798.814 130.219L788.446 52.8388Z" fill="#F583E3"/>
<path d="M637.5 64L672.574 133.75H602.426L637.5 64Z" fill="#F583E3"/>
<path d="M557.312 58.4853L483.247 33.7924L532.965 -15.6936L557.312 58.4853Z" fill="#F583E3"/>
<path d="M70.359 69.898L-7.70274 71.1673L22.7883 7.9926L70.359 69.898Z" fill="#F583E3"/>
<path d="M464.701 55.9482L467.368 133.975L403.657 104.62L464.701 55.9482Z" fill="#F583E3"/>
<path d="M387.314 67.4102L320.83 26.482L380.521 -10.3658L387.314 67.4102Z" fill="#F583E3"/>
</svg>
